<?xml version="1.0" encoding="UTF-8" standalone="no"?>
<svg width="100px" height="100px" viewBox="0 0 100 100" version="1.1" xmlns="http://www.w3.org/2000/svg" xmlns:xlink="http://www.w3.org/1999/xlink">
    <title>diagnostic-testing</title>
    <desc>Created with Sketch.</desc>
    <defs>
        <polygon id="path-1" points="0.06 100 99.735 100 99.735 0.264 0.06 0.264"></polygon>
    </defs>
    <g id="Page-1" stroke="none" stroke-width="1" fill="none" fill-rule="evenodd">
        <g id="diagnostic-testing">
            <g id="Group-3">
                <mask id="mask-2" fill="white">
                    <use xlink:href="#path-1"></use>
                </mask>
                <g id="Clip-2"></g>
                <path d="M49.867,3.264 C24.024,3.264 3,24.289 3,50.132 C3,75.975 24.024,97 49.867,97 C75.71,97 96.735,75.975 96.735,50.132 C96.735,24.289 75.71,3.264 49.867,3.264 Z M49.867,100 C22.37,100 0,77.629 0,50.132 C0,22.634 22.37,0.264 49.867,0.264 C77.364,0.264 99.735,22.634 99.735,50.132 C99.735,77.629 77.364,100 49.867,100 L49.867,100 Z" id="Fill-1" fill="#343433" mask="url(#mask-2)"></path>
            </g>
            <path d="M37.851,47.499 C37.803,47.683 37.72,47.859 37.603,48.017 L37.381,48.306 C37.275,48.44 37.17,48.573 37.076,48.716 C35.438,51.207 34.572,54.108 34.572,57.105 C34.572,65.541 41.435,72.404 49.87,72.404 C58.305,72.404 65.167,65.541 65.167,57.105 C65.167,53.776 64.1,50.6 62.08,47.92 C61.932,47.723 61.837,47.496 61.798,47.26 L49.921,29.708 L37.851,47.499 Z M49.87,75.404 C39.78,75.404 31.572,67.195 31.572,57.105 C31.572,53.522 32.608,50.05 34.569,47.068 C34.664,46.923 34.767,46.784 34.872,46.646 C34.915,46.517 34.976,46.394 35.054,46.278 L48.682,26.191 C48.961,25.78 49.426,25.534 49.923,25.534 L49.924,25.534 C50.421,25.534 50.887,25.781 51.165,26.193 L64.687,46.176 C64.8,46.344 64.877,46.53 64.915,46.722 C67.045,49.795 68.167,53.369 68.167,57.105 C68.167,67.195 59.959,75.404 49.87,75.404 L49.87,75.404 Z" id="Fill-4" fill="#343433"></path>
        </g>
    </g>
</svg>
