<?xml version="1.0" encoding="UTF-8" standalone="no"?>
<svg width="100px" height="100px" viewBox="0 0 100 100" version="1.1" xmlns="http://www.w3.org/2000/svg" xmlns:xlink="http://www.w3.org/1999/xlink">
    <!-- Generator: Sketch 41.2 (35397) - http://www.bohemiancoding.com/sketch -->
    <title>treatment</title>
    <desc>Created with Sketch.</desc>
    <defs>
        <polygon id="path-1" points="0.06 100 99.736 100 99.736 0.264 0.06 0.264"></polygon>
    </defs>
    <g id="Page-1" stroke="none" stroke-width="1" fill="none" fill-rule="evenodd">
        <g id="treatment">
            <path d="M49.018,42.094 L57.906,50.981 L66.908,41.979 C68.023,40.864 68.636,39.382 68.636,37.805 C68.636,36.228 68.023,34.746 66.908,33.63 L66.369,33.091 C65.253,31.977 63.771,31.362 62.195,31.362 C60.619,31.362 59.136,31.977 58.021,33.091 L49.018,42.094 Z M57.906,54.603 C57.521,54.603 57.138,54.456 56.845,54.163 L45.836,43.154 C45.555,42.873 45.396,42.492 45.396,42.094 C45.396,41.696 45.555,41.315 45.836,41.033 L55.9,30.97 C57.582,29.289 59.817,28.362 62.195,28.362 C64.574,28.362 66.808,29.289 68.49,30.97 L69.029,31.509 C70.71,33.191 71.636,35.427 71.636,37.805 C71.636,40.183 70.71,42.419 69.029,44.1 L58.966,54.163 C58.673,54.456 58.289,54.603 57.906,54.603 L57.906,54.603 Z" id="Fill-1" fill="#343433"></path>
            <g id="Group-5">
                <mask id="mask-2" fill="white">
                    <use xlink:href="#path-1"></use>
                </mask>
                <g id="Clip-3"></g>
                <path d="M41.831,49.282 L32.828,58.284 C31.713,59.399 31.099,60.882 31.099,62.459 C31.099,64.035 31.713,65.518 32.828,66.633 L33.367,67.172 C34.482,68.287 35.964,68.9 37.541,68.9 C39.118,68.9 40.6,68.287 41.715,67.172 L50.717,58.17 L41.831,49.282 Z M37.541,71.9 C35.163,71.9 32.928,70.975 31.246,69.293 L30.707,68.754 C29.025,67.072 28.099,64.837 28.099,62.459 C28.099,60.08 29.025,57.845 30.707,56.163 L40.77,46.1 C41.333,45.538 42.329,45.538 42.891,46.1 L53.899,57.109 C54.485,57.695 54.485,58.645 53.899,59.23 L43.836,69.293 C42.155,70.975 39.919,71.9 37.541,71.9 L37.541,71.9 Z" id="Fill-2" fill="#343433" mask="url(#mask-2)"></path>
                <path d="M49.868,3.264 C24.025,3.264 3,24.289 3,50.132 C3,75.975 24.025,97 49.868,97 C75.71,97 96.736,75.975 96.736,50.132 C96.736,24.289 75.71,3.264 49.868,3.264 Z M49.868,100 C22.371,100 0,77.629 0,50.132 C0,22.634 22.371,0.264 49.868,0.264 C77.365,0.264 99.736,22.634 99.736,50.132 C99.736,77.629 77.365,100 49.868,100 L49.868,100 Z" id="Fill-4" fill="#343433" mask="url(#mask-2)"></path>
            </g>
        </g>
    </g>
</svg>