<svg id="icon" xmlns="http://www.w3.org/2000/svg" width="180" height="180" viewBox="0 0 180 180">
  <rect id="Rectangle_21" data-name="Rectangle 21" width="180" height="180" rx="90" transform="translate(0 0)" fill="#1899cc"/>
  <g id="Page-1" transform="translate(0 0)">
    <g id="diagnostic-testing">
      <g id="Group-3">
        <path id="Fill-1" d="M90,5.678a84.586,84.586,0,1,0,84.586,84.586A84.68,84.68,0,0,0,90,5.678Zm0,174.586a90,90,0,1,1,90-90,90.1,90.1,0,0,1-90,90Z" transform="translate(0 -0.264)" fill="#fff" fill-rule="evenodd"/>
      </g>
      <path id="Fill-4" d="M42.9,65.176a2.726,2.726,0,0,1-.448.935l-.4.522c-.191.242-.381.482-.55.74a27.628,27.628,0,1,0,45.126-1.437,2.72,2.72,0,0,1-.509-1.191L64.688,33.067ZM64.6,115.538A33.028,33.028,0,0,1,36.981,64.4c.171-.262.357-.513.547-.762a2.743,2.743,0,0,1,.328-.664l24.6-36.252a2.707,2.707,0,0,1,2.24-1.186h0a2.7,2.7,0,0,1,2.24,1.189l24.4,36.065a2.712,2.712,0,0,1,.411.985,32.679,32.679,0,0,1,5.869,18.739A33.061,33.061,0,0,1,64.6,115.538Z" transform="translate(25.408 20.072)" fill="#fff" fill-rule="evenodd"/>
    </g>
  </g>
</svg>
