<?xml version="1.0" encoding="UTF-8" standalone="no"?>
<svg width="100px" height="100px" viewBox="0 0 100 100" version="1.1" xmlns="http://www.w3.org/2000/svg" xmlns:xlink="http://www.w3.org/1999/xlink">
    <!-- Generator: Sketch 41.2 (35397) - http://www.bohemiancoding.com/sketch -->
    <title>vector-control</title>
    <desc>Created with Sketch.</desc>
    <defs>
        <polygon id="path-1" points="0.06 100 99.736 100 99.736 0.264 0.06 0.264"></polygon>
    </defs>
    <g id="Page-1" stroke="none" stroke-width="1" fill="none" fill-rule="evenodd">
        <g id="vector-control">
            <g id="Group-3">
                <mask id="mask-2" fill="white">
                    <use xlink:href="#path-1"></use>
                </mask>
                <g id="Clip-2"></g>
                <path d="M49.868,3.264 C24.025,3.264 3,24.289 3,50.132 C3,75.975 24.025,97 49.868,97 C75.711,97 96.736,75.975 96.736,50.132 C96.736,24.289 75.711,3.264 49.868,3.264 Z M49.868,100 C22.371,100 0,77.629 0,50.132 C0,22.634 22.371,0.264 49.868,0.264 C77.365,0.264 99.736,22.634 99.736,50.132 C99.736,77.629 77.365,100 49.868,100 L49.868,100 Z" id="Fill-1" fill="#343433" mask="url(#mask-2)"></path>
            </g>
            <path d="M49.858,33.624 C49.236,33.624 48.544,34.496 48.544,35.747 C48.544,36.997 49.236,37.869 49.858,37.869 C50.479,37.869 51.172,36.997 51.172,35.747 C51.172,34.496 50.479,33.624 49.858,33.624 Z M49.858,40.168 C48.893,40.168 47.816,41.704 47.816,43.906 C47.816,46.109 48.893,47.645 49.858,47.645 C50.823,47.645 51.898,46.109 51.898,43.906 C51.898,41.704 50.823,40.168 49.858,40.168 Z M49.857,50.593 C49.381,51.738 48.786,54.516 48.786,58.651 C48.786,62.786 49.381,65.564 49.857,66.709 C50.334,65.563 50.929,62.785 50.929,58.651 C50.929,54.517 50.334,51.738 49.857,50.593 Z M49.858,69.457 C46.729,69.457 46.485,61.186 46.485,58.651 C46.485,56.79 46.617,51.836 47.926,49.335 C46.486,48.362 45.516,46.321 45.516,43.906 C45.516,41.833 46.231,40.035 47.345,38.952 C46.663,38.152 46.243,37.021 46.243,35.747 C46.243,33.267 47.831,31.324 49.858,31.324 C51.885,31.324 53.473,33.267 53.473,35.747 C53.473,37.021 53.054,38.153 52.371,38.953 C53.484,40.035 54.199,41.833 54.199,43.906 C54.199,46.321 53.23,48.362 51.79,49.335 C53.098,51.836 53.23,56.79 53.23,58.651 C53.23,61.186 52.986,69.457 49.858,69.457 L49.858,69.457 Z" id="Fill-4" fill="#343433"></path>
            <path d="M46.977,42.948 C46.812,42.948 46.644,42.912 46.484,42.837 L39.266,39.411 C38.699,39.142 38.452,38.469 38.711,37.898 L41.947,30.747 L34.307,16.87 C34.001,16.313 34.203,15.614 34.76,15.308 C35.316,15.003 36.016,15.204 36.322,15.76 L44.24,30.142 C44.415,30.46 44.43,30.841 44.28,31.171 L41.272,37.817 L47.471,40.759 C48.044,41.031 48.289,41.717 48.017,42.291 C47.819,42.706 47.407,42.948 46.977,42.948" id="Fill-5" fill="#343433"></path>
            <path d="M45.692,46.817 C40.076,48.252 28.389,51.529 26.023,53.548 C24.829,54.568 23.462,55.918 23.737,56.557 C23.962,56.908 25.65,58.251 29.563,57.988 C34.786,57.635 37.8,56.1 38.6,55.637 C39.578,55.07 43.548,51.594 46.131,49.259 L45.692,46.817 Z M28.542,60.324 C23.909,60.324 21.994,58.325 21.636,57.489 C21.022,56.068 21.285,54.568 24.531,51.799 C27.952,48.878 44.461,44.747 46.332,44.285 C46.642,44.208 46.968,44.264 47.233,44.437 C47.5,44.61 47.684,44.886 47.739,45.198 L48.507,49.48 C48.577,49.87 48.441,50.268 48.148,50.534 C47.457,51.163 41.347,56.703 39.751,57.627 C38.587,58.301 35.28,59.906 29.719,60.283 C29.309,60.312 28.916,60.324 28.542,60.324 L28.542,60.324 Z" id="Fill-6" fill="#343433"></path>
            <path d="M24.973,77.193 C24.671,77.193 24.369,77.075 24.144,76.84 C23.703,76.383 23.718,75.654 24.176,75.215 L36.712,63.159 L36.35,58.439 C36.301,57.807 36.774,57.254 37.408,57.205 C38.036,57.158 38.595,57.631 38.643,58.264 L39.047,63.523 C39.073,63.866 38.945,64.203 38.697,64.441 L25.77,76.873 C25.547,77.087 25.26,77.193 24.973,77.193 Z M38.87,87.919 C38.755,87.919 38.638,87.901 38.521,87.865 C37.916,87.672 37.582,87.025 37.774,86.42 L43.864,67.259 L39.511,57.168 C39.259,56.586 39.527,55.908 40.11,55.657 C40.695,55.403 41.37,55.676 41.622,56.258 L46.146,66.742 C46.257,66.996 46.271,67.282 46.187,67.546 L39.966,87.117 C39.811,87.606 39.358,87.919 38.87,87.919 L38.87,87.919 Z" id="Fill-7" fill="#343433"></path>
            <path d="M49.09,33.787 C48.582,33.787 48.116,33.447 47.98,32.932 L44.343,19.277 C44.18,18.663 44.544,18.033 45.158,17.87 C45.765,17.71 46.402,18.071 46.565,18.685 L50.202,32.34 C50.365,32.954 50.001,33.584 49.387,33.748 C49.288,33.774 49.188,33.787 49.09,33.787 Z M52.76,42.949 C52.329,42.949 51.917,42.706 51.72,42.292 C51.447,41.718 51.692,41.032 52.266,40.759 L58.465,37.817 L55.456,31.17 C55.307,30.84 55.321,30.459 55.496,30.142 L63.414,15.761 C63.721,15.204 64.421,15.001 64.977,15.308 C65.533,15.614 65.735,16.314 65.43,16.87 L57.789,30.747 L61.026,37.898 C61.285,38.469 61.038,39.142 60.472,39.411 L53.252,42.837 C53.093,42.913 52.925,42.949 52.76,42.949 L52.76,42.949 Z" id="Fill-8" fill="#343433"></path>
            <path d="M53.605,49.259 C56.263,51.66 60.15,55.064 61.138,55.637 C61.937,56.1 64.95,57.635 70.174,57.988 C74.084,58.251 75.773,56.908 76.012,56.534 C76.274,55.917 74.907,54.568 73.713,53.549 C71.348,51.53 59.66,48.252 54.043,46.817 L53.605,49.259 Z M71.194,60.324 C70.82,60.324 70.429,60.312 70.018,60.283 C64.456,59.906 61.149,58.301 59.986,57.628 C58.391,56.703 52.279,51.163 51.588,50.534 C51.295,50.268 51.159,49.87 51.229,49.48 L51.997,45.198 C52.053,44.886 52.236,44.61 52.503,44.437 C52.768,44.264 53.096,44.208 53.404,44.285 C55.275,44.747 71.784,48.878 75.205,51.799 C78.451,54.567 78.715,56.067 78.11,57.467 C77.743,58.323 75.826,60.324 71.194,60.324 L71.194,60.324 Z" id="Fill-9" fill="#343433"></path>
            <path d="M50.646,33.787 C50.548,33.787 50.448,33.774 50.35,33.748 C49.735,33.585 49.371,32.955 49.534,32.341 L53.171,18.686 C53.334,18.071 53.97,17.707 54.578,17.87 C55.192,18.034 55.557,18.664 55.394,19.277 L51.757,32.933 C51.62,33.447 51.154,33.787 50.646,33.787 Z M74.764,77.193 C74.477,77.193 74.189,77.087 73.967,76.873 L61.039,64.441 C60.791,64.203 60.663,63.866 60.69,63.523 L61.094,58.264 C61.143,57.631 61.703,57.158 62.328,57.205 C62.962,57.254 63.436,57.807 63.387,58.439 L63.024,63.159 L75.561,75.215 C76.019,75.654 76.033,76.383 75.593,76.84 C75.367,77.075 75.065,77.193 74.764,77.193 Z M60.866,87.919 C60.378,87.919 59.926,87.606 59.771,87.117 L53.55,67.546 C53.466,67.282 53.479,66.996 53.59,66.742 L58.114,56.258 C58.365,55.676 59.041,55.404 59.626,55.657 C60.209,55.908 60.478,56.586 60.226,57.168 L55.872,67.259 L61.962,86.42 C62.154,87.025 61.82,87.672 61.215,87.865 C61.099,87.901 60.981,87.919 60.866,87.919 L60.866,87.919 Z" id="Fill-10" fill="#343433"></path>
            <path d="M49.868,12.495 C49.868,12.495 49.905,12.585 49.966,12.754 C50.024,12.923 50.118,13.171 50.219,13.487 C50.323,13.803 50.44,14.186 50.568,14.626 C50.629,14.846 50.693,15.08 50.762,15.326 C50.8,15.449 50.794,15.576 50.776,15.705 C50.76,15.835 50.768,15.967 50.766,16.103 L50.766,31.976 C50.768,32.112 48.969,32.112 48.972,31.976 L48.972,16.103 C48.969,15.967 48.977,15.835 48.96,15.705 C48.942,15.576 48.937,15.449 48.975,15.326 C49.043,15.08 49.107,14.846 49.168,14.626 C49.296,14.186 49.413,13.803 49.518,13.487 C49.618,13.171 49.712,12.923 49.771,12.754 C49.831,12.585 49.868,12.495 49.868,12.495" id="Fill-11" fill="#343433"></path>
        </g>
    </g>
</svg>