<svg xmlns="http://www.w3.org/2000/svg" width="315.615" height="300.727" viewBox="0 0 315.615 300.727">
  <g id="Group_750" data-name="Group 750" transform="translate(-560.644 -138.505)" style="mix-blend-mode: normal;isolation: isolate">
    <g id="Group_614" data-name="Group 614" transform="translate(641.191 251.246)">
      <path id="Path_639" data-name="Path 639" d="M792.1,544.843c-7.774,0-15.187-2.225-20.3-8.144a20.338,20.338,0,0,1-4.193-17.887c3.065-12.5,15.943-17.4,21.337-18.934,22.252-6.306,42.475.538,62.032,7.158a2.343,2.343,0,1,1-1.5,4.438c-18.879-6.39-38.4-13-59.253-7.088-4.606,1.305-15.585,5.433-18.064,15.542a15.8,15.8,0,0,0,3.189,13.709c7.8,9.029,23.925,7.557,36.45,2.094,7.739-3.376,15.327-8.325,22.666-13.11,1.989-1.3,3.972-2.59,5.952-3.849a2.343,2.343,0,1,1,2.515,3.953c-1.965,1.25-3.933,2.533-5.907,3.821-7.5,4.89-15.255,9.947-23.352,13.48A55.827,55.827,0,0,1,792.1,544.843Z" transform="translate(-767.034 -469.33)" fill="#d4d1d1"/>
      <path id="Path_640" data-name="Path 640" d="M838.313,526.99a79.629,79.629,0,0,1-23.882-4.02c-15.159-4.793-18.791-13.185-18.869-15.747-.141-4.174,2.131-7.722,13.667-11.706a31.106,31.106,0,0,1,7.749-1.271,2.343,2.343,0,0,1,.314,4.675,27.31,27.31,0,0,0-6.534,1.025c-10.631,3.672-10.551,6.037-10.517,7.047.145,1.4,3.372,7.644,15.6,11.511,15.323,4.845,25.716,3.825,28.537,3.4,4.138-.63,20.943-6.944,27.069-9.324a2.343,2.343,0,0,1,1.7,4.367c-2.3.895-22.661,8.767-28.062,9.589A45.61,45.61,0,0,1,838.313,526.99Z" transform="translate(-784.359 -467.415)" fill="#393a3a"/>
      <path id="Path_641" data-name="Path 641" d="M932.328,537.436c2.561,2.233-2.944,11.387-11.852,21.6s-18.2,16.687-20.764,14.454,2.584-12.324,11.491-22.539q.2-.224.391-.445a51.759,51.759,0,0,1,8.585-7.754l10.134-7.292Z" transform="translate(-846.247 -491.465)" fill="#d4d1d1"/>
      <path id="Path_642" data-name="Path 642" d="M929.211,532.022a2.338,2.338,0,0,1,1.64.669l2.016,1.975c3.7,3.225-.207,11.6-11.726,24.815-6.314,7.241-15.645,15.7-21.163,15.7a4.309,4.309,0,0,1-2.906-1.018c-2.219-1.935-1.926-5.568.9-11.106a77.1,77.1,0,0,1,10.367-14.738,55.519,55.519,0,0,1,9.372-8.561l10.134-7.292A2.338,2.338,0,0,1,929.211,532.022ZM900.325,570.86c1.809-.367,8.9-4.845,17.285-14.458,9.724-11.151,12.211-17.321,11.892-18.561l-.483-.451-8.573,6.169a49.507,49.507,0,0,0-8.2,7.4C903.191,561.347,899.791,569.238,900.325,570.86Z" transform="translate(-845.146 -490.369)" fill="#393a3a"/>
      <path id="Path_643" data-name="Path 643" d="M1042.48,501.833c.145-2.772,3.523-4.849,7.546-4.639s7.166,2.628,7.022,5.4-3.523,4.849-7.546,4.639l-4.066-.058" transform="translate(-933.381 -468.209)" fill="#d4d1d1"/>
      <path id="Path_644" data-name="Path 644" d="M1048.979,508.494q-.345,0-.7-.018l-3.978-.055a2.343,2.343,0,0,1,.067-4.685l4.066.058c2.92.15,5.107-1.154,5.173-2.419s-1.975-2.791-4.8-2.938-5.018,1.156-5.084,2.422a2.343,2.343,0,1,1-4.679-.245c.216-4.127,4.613-7.138,10.007-6.856s9.454,3.735,9.239,7.861C1058.083,505.567,1054.052,508.494,1048.979,508.494Z" transform="translate(-932.284 -467.112)" fill="#393a3a"/>
      <path id="Path_645" data-name="Path 645" d="M1106.128,532.374s-.176-.041-.5-.132-.8-.22-1.383-.408-1.3-.42-2.1-.7c-.4-.145-.822-.3-1.269-.462a1.613,1.613,0,0,1-.589-.388,6.953,6.953,0,0,0-.59-.447l-12.012-8.568-12.013-8.57a7.427,7.427,0,0,1,1.937-2.715l12.014,8.57,12.012,8.568a6.984,6.984,0,0,0,.614.413,1.6,1.6,0,0,1,.558.431c.3.37.583.719.85,1.049.528.669.981,1.259,1.347,1.758s.644.9.836,1.174.287.428.287.428" transform="translate(-953.537 -475.983)" fill="#393a3a"/>
      <path id="Path_646" data-name="Path 646" d="M1006.149,508.321c.779,4.658-4.917,9.493-12.722,10.8s-14.765-1.411-15.544-6.069,4.917-9.493,12.722-10.8,14.765,1.411,15.544,6.07" transform="translate(-894.094 -471.091)" fill="#d4d1d1"/>
      <path id="Path_647" data-name="Path 647" d="M993.384,498.485c7.525,0,13.143,3.357,13.979,8.353,1.008,6.025-5.425,11.953-14.646,13.5a25.883,25.883,0,0,1-4.263.36c-7.525,0-13.142-3.357-13.978-8.352-1.008-6.025,5.425-11.954,14.646-13.5A25.879,25.879,0,0,1,993.384,498.485Zm-4.93,17.523a21.186,21.186,0,0,0,3.49-.3c6.967-1.166,11.282-5.205,10.8-8.1-.424-2.532-4.447-4.441-9.358-4.441a21.183,21.183,0,0,0-3.489.3c-6.967,1.166-11.282,5.206-10.8,8.1C979.521,514.1,983.543,516.008,988.454,516.008Z" transform="translate(-892.997 -469.994)" fill="#393a3a"/>
      <path id="Path_648" data-name="Path 648" d="M961.984,600.608a2.343,2.343,0,0,1-2.031-3.507l15.988-27.927-.749-20.761a2.343,2.343,0,1,1,4.682-.169l.774,21.429a2.342,2.342,0,0,1-.308,1.248l-16.32,28.507A2.342,2.342,0,0,1,961.984,600.608Z" transform="translate(-884.048 -498.853)" fill="#393a3a"/>
      <path id="Path_649" data-name="Path 649" d="M1064.533,579.163a2.66,2.66,0,0,1-2.631-2.291l-2.831-20.191-18.208-17.041a2.66,2.66,0,1,1,3.635-3.884l18.893,17.683a2.659,2.659,0,0,1,.817,1.573l2.961,21.121a2.66,2.66,0,0,1-2.265,3A2.7,2.7,0,0,1,1064.533,579.163Z" transform="translate(-933.015 -492.336)" fill="#393a3a"/>
      <path id="Path_650" data-name="Path 650" d="M1030.96,588.808a2.662,2.662,0,0,1-2.631-3.073l3.262-20.744-10.2-18.032a2.66,2.66,0,1,1,4.631-2.618l10.651,18.839a2.662,2.662,0,0,1,.312,1.722l-3.406,21.66A2.66,2.66,0,0,1,1030.96,588.808Z" transform="translate(-921.49 -497.166)" fill="#393a3a"/>
      <path id="Path_651" data-name="Path 651" d="M861.479,468.121c-7.13,0-15.742-.142-18.859-.772-3.906-.792-14.407-3.727-27.566-13.872-12.592-9.707-13.121-18.836-12.313-21.269,1.3-3.968,4.653-6.52,16.856-6.3,13.565.242,65.157,27.243,67.347,28.393a2.343,2.343,0,0,1-2.177,4.148c-14.643-7.686-54.91-27.672-65.254-27.857-11.246-.2-11.983,2.047-12.3,3.007-.345,1.364.541,8.337,10.7,16.168,12.728,9.813,22.839,12.424,25.635,12.991,4.1.83,21.839.706,28.326.588a2.343,2.343,0,1,1,.085,4.684C870.941,468.048,866.591,468.121,861.479,468.121Z" transform="translate(-788.568 -425.894)" fill="#393a3a"/>
    </g>
    <path id="Path_652" data-name="Path 652" d="M665.471,648.629a140.941,140.941,0,0,1-69.393-141.277l4.224.568a136.694,136.694,0,0,0,67.3,137.018Z" transform="translate(-21.117 -223.263)" fill="#343434"/>
    <path id="Path_653" data-name="Path 653" d="M915.867,885a140.01,140.01,0,0,1-36.113-4.734l1.1-4.119a136.319,136.319,0,0,0,53.021,3.411,137.934,137.934,0,0,0,29.314-7.153l1.46,4A143.089,143.089,0,0,1,915.867,885Z" transform="translate(-193.562 -445.77)" fill="#343434"/>
    <path id="Path_654" data-name="Path 654" d="M1277.714,529.87l-3.987-1.506a137.739,137.739,0,0,0,1.547-92.51l4.036-1.37a142,142,0,0,1-1.6,95.386Z" transform="translate(-433.522 -179.164)" fill="#343434"/>
    <path id="Path_655" data-name="Path 655" d="M733.495,223.135l-2.548-3.417A141.551,141.551,0,0,1,870.4,202.852l-1.66,3.925a137.289,137.289,0,0,0-135.241,16.357Z" transform="translate(-103.466 -32.306)" fill="#343434"/>
    <path id="Path_656" data-name="Path 656" d="M626.612,573.814a133.669,133.669,0,0,1-12.731-77.5q.6-4.436,1.47-8.764l4.178.842q-.844,4.19-1.424,8.49A129.422,129.422,0,0,0,630.43,571.92Z" transform="translate(-31.972 -211.291)" fill="#343434"/>
    <path id="Path_657" data-name="Path 657" d="M751.089,816.263a134.935,134.935,0,0,1-53.8-34.836l3.1-2.924a130.656,130.656,0,0,0,52.093,33.733Z" transform="translate(-83.135 -388.492)" fill="#343434"/>
    <path id="Path_658" data-name="Path 658" d="M995.471,863.891l-.3-4.251q3.857-.275,7.743-.782a130.4,130.4,0,0,0,33.61-9.06l1.651,3.929a134.663,134.663,0,0,1-34.709,9.358Q999.454,863.608,995.471,863.891Z" transform="translate(-263.51 -432.018)" fill="#343434"/>
    <path id="Path_659" data-name="Path 659" d="M1259.9,480.861l-4.2-.7a131.408,131.408,0,0,0,1.771-21.518,128.792,128.792,0,0,0-13.379-57.526l3.821-1.887a133.014,133.014,0,0,1,13.819,59.413A135.69,135.69,0,0,1,1259.9,480.861Z" transform="translate(-415.483 -157.856)" fill="#343434"/>
    <path id="Path_660" data-name="Path 660" d="M945.217,222.813A130.831,130.831,0,0,0,868,217.276l-.97-4.15a135.092,135.092,0,0,1,79.744,5.72Z" transform="translate(-185.805 -43.158)" fill="#343434"/>
    <path id="Path_661" data-name="Path 661" d="M723.174,264.971l-2.813-3.2a134.4,134.4,0,0,1,32.484-21.126l1.784,3.871A130.141,130.141,0,0,0,723.174,264.971Z" transform="translate(-97.091 -61.931)" fill="#343434"/>
    <g id="Group_616" data-name="Group 616" transform="translate(560.644 138.505)">
      <path id="Path_662" data-name="Path 662" d="M600.154,356.509A37.652,37.652,0,1,0,562.5,318.858a37.652,37.652,0,0,0,37.652,37.652" transform="translate(-561.237 -224.259)" fill="#41b47f"/>
      <path id="Path_663" data-name="Path 663" d="M599.562,357.183a38.741,38.741,0,0,1-21.76-6.648,39.028,39.028,0,0,1-14.1-17.122,38.869,38.869,0,0,1,3.588-36.909,39.028,39.028,0,0,1,17.122-14.1,38.87,38.87,0,0,1,36.909,3.588,39.027,39.027,0,0,1,14.1,17.122,38.868,38.868,0,0,1-3.589,36.909,39.029,39.029,0,0,1-17.122,14.1A38.677,38.677,0,0,1,599.562,357.183Zm0-75.3a36.269,36.269,0,1,0,14.163,2.859A36.155,36.155,0,0,0,599.562,281.879Z" transform="translate(-560.644 -223.666)" fill="#3a3a3a"/>
      <path id="Path_664" data-name="Path 664" d="M654.117,370.526a1.746,1.746,0,0,1-1.527-1.1,7.5,7.5,0,0,1-.643-1.857,29.084,29.084,0,0,1,0-11.065,8.066,8.066,0,0,1,.562-1.7,5.174,5.174,0,0,1-1.848-4.246,5.5,5.5,0,0,1,1.4-3.867q-.04-.049-.079-.1a4.134,4.134,0,0,1,0-4.771,2.573,2.573,0,0,1,4.265,0,4.136,4.136,0,0,1,0,4.77q-.039.051-.079.1a5.5,5.5,0,0,1,1.4,3.867,5.174,5.174,0,0,1-1.848,4.246,8.069,8.069,0,0,1,.561,1.7,29.1,29.1,0,0,1,0,11.065,7.505,7.505,0,0,1-.643,1.857A1.745,1.745,0,0,1,654.117,370.526Zm0-14.54a9.291,9.291,0,0,0-.388,1.489,28.263,28.263,0,0,0,0,9.127,9.3,9.3,0,0,0,.388,1.489,9.312,9.312,0,0,0,.387-1.489,28.276,28.276,0,0,0,0-9.127A9.313,9.313,0,0,0,654.117,355.986Zm0-8.26c-.715,0-1.514,1.212-1.514,2.834,0,1.338.647,2.834,1.514,2.834.714,0,1.513-1.212,1.513-2.834C655.63,349.222,654.983,347.726,654.117,347.726Zm0-5.094c-.447,0-.948.674-.948,1.577,0,.744.405,1.575.948,1.575.447,0,.947-.674.947-1.575C655.064,343.464,654.659,342.631,654.117,342.631Z" transform="translate(-615.206 -260.808)" fill="#3a3a3a"/>
      <path id="Path_665" data-name="Path 665" d="M638.2,330.42a.967.967,0,0,1-.416-.094l-5.62-2.667a.971.971,0,0,1-.468-1.278l2.5-5.532-5.929-10.77a.971.971,0,0,1,1.7-.937l6.164,11.2a.971.971,0,0,1,.034.869l-2.311,5.106,4.758,2.258a.971.971,0,0,1-.417,1.849Z" transform="translate(-601.528 -241.338)" fill="#3a3a3a"/>
      <path id="Path_666" data-name="Path 666" d="M622.487,366.33a.971.971,0,0,1,.956.8l.6,3.334a.971.971,0,0,1-.3.89c-.539.49-5.3,4.808-6.551,5.531a18.283,18.283,0,0,1-7.842,2.077c-.307.021-.612.031-.905.031a8.525,8.525,0,0,1-3.816-.782,3.446,3.446,0,0,1-1.646-1.472l-.008-.018a2.122,2.122,0,0,1-.021-1.793,7.9,7.9,0,0,1,2.3-2.706,14.583,14.583,0,0,1,3.969-1.983c1.506-.569,3.408-1.2,5.653-1.865,3.807-1.133,7.344-2.008,7.38-2.017A.97.97,0,0,1,622.487,366.33Zm-.453,3.946-.319-1.778c-1.311.338-3.741.98-6.293,1.74-6.486,1.932-8.366,3-8.909,3.462a6.216,6.216,0,0,0-1.767,1.963.246.246,0,0,0,0,.273c.093.112,1,1.114,3.693,1.114.25,0,.51-.009.774-.027a16.5,16.5,0,0,0,7-1.82C616.968,374.767,620.025,372.091,622.034,370.277Z" transform="translate(-586.107 -276.386)" fill="#3a3a3a"/>
      <path id="Path_667" data-name="Path 667" d="M619.423,414.7a.97.97,0,0,1-.926-1.266L623.34,398.2a.971.971,0,1,1,1.851.588l-4.843,15.234A.971.971,0,0,1,619.423,414.7Zm-10.818-8.349a.971.971,0,0,1-.673-1.671l9.733-9.36-.279-3.637a.971.971,0,1,1,1.937-.149l.314,4.094a.972.972,0,0,1-.3.774l-10.063,9.678A.968.968,0,0,1,608.606,406.352Z" transform="translate(-589.067 -290.613)" fill="#3a3a3a"/>
      <path id="Path_668" data-name="Path 668" d="M654.914,331.391a.971.971,0,0,1-.92-1.282l2.916-8.643a.971.971,0,0,1,1.8-.09l2.7,5.975a.971.971,0,0,1-.468,1.278L655.33,331.3A.969.969,0,0,1,654.914,331.391Zm3.048-6.968-1.4,4.137,2.691-1.277Zm-5.9-.165a.971.971,0,0,1-.938-.721l-2.83-10.63a.971.971,0,0,1,1.877-.5l2.83,10.63a.972.972,0,0,1-.939,1.221Z" transform="translate(-613.746 -242.309)" fill="#3a3a3a"/>
      <path id="Path_669" data-name="Path 669" d="M663.524,366.33a.971.971,0,0,1,.232.028c.035.009,3.573.883,7.38,2.017,2.245.669,4.147,1.3,5.653,1.865a14.585,14.585,0,0,1,3.97,1.983,7.9,7.9,0,0,1,2.3,2.706,2.12,2.12,0,0,1-.022,1.793l-.008.018a3.443,3.443,0,0,1-1.645,1.47,8.525,8.525,0,0,1-3.816.782c-.293,0-.6-.01-.905-.031a18.278,18.278,0,0,1-7.842-2.078c-1.25-.722-6.012-5.041-6.552-5.53a.972.972,0,0,1-.3-.89l.6-3.334a.971.971,0,0,1,.956-.8Zm17.741,9.607a.244.244,0,0,0,0-.273A6.214,6.214,0,0,0,679.5,373.7c-.544-.464-2.424-1.531-8.91-3.462-2.552-.76-4.981-1.4-6.293-1.74l-.319,1.778c2.009,1.814,5.066,4.491,5.82,4.926a16.5,16.5,0,0,0,7,1.821c.264.018.525.027.774.027C680.263,377.051,681.172,376.049,681.265,375.937Z" transform="translate(-622.068 -276.386)" fill="#3a3a3a"/>
      <path id="Path_670" data-name="Path 670" d="M668.938,382.986a.971.971,0,0,1-.925-.677l-4.843-15.234a.971.971,0,1,1,1.851-.588l4.843,15.234a.972.972,0,0,1-.926,1.266Zm10.818-8.349a.968.968,0,0,1-.673-.271l-10.064-9.678a.971.971,0,0,1-.3-.774l.315-4.094a.971.971,0,1,1,1.936.149l-.28,3.637,9.733,9.36a.971.971,0,0,1-.673,1.671Z" transform="translate(-621.458 -258.898)" fill="#3a3a3a"/>
      <path id="Path_671" data-name="Path 671" d="M657.325,302.49s.029.07.076.2.119.324.2.57.173.544.272.887c.048.171.1.353.151.544a.671.671,0,0,1,.011.295,3.013,3.013,0,0,0-.009.31v12.357a3.12,3.12,0,0,1-1.4,0V305.3a2.76,2.76,0,0,0-.009-.31.661.661,0,0,1,.011-.295c.053-.192.1-.374.151-.544.1-.343.191-.641.272-.887s.151-.439.2-.57.076-.2.076-.2" transform="translate(-618.407 -237.19)" fill="#3a3a3a"/>
      <path id="Path_672" data-name="Path 672" d="M1117.61,284.218a46.625,46.625,0,1,0-46.625-46.625,46.625,46.625,0,0,0,46.625,46.625" transform="translate(-870.151 -169.438)" fill="#008cbd"/>
      <path id="Ellipse_114" data-name="Ellipse 114" d="M48.193,0A47.975,47.975,0,0,1,75.14,8.232,48.329,48.329,0,0,1,92.6,29.434,48.132,48.132,0,0,1,88.155,75.14,48.329,48.329,0,0,1,66.953,92.6a48.132,48.132,0,0,1-45.706-4.444,48.33,48.33,0,0,1-17.459-21.2A48.132,48.132,0,0,1,8.232,21.247a48.33,48.33,0,0,1,21.2-17.459A47.893,47.893,0,0,1,48.193,0Zm0,93.25a44.839,44.839,0,0,0,25.191-7.694A45.193,45.193,0,0,0,89.71,65.731,45,45,0,0,0,85.556,23,45.193,45.193,0,0,0,65.731,6.677,45,45,0,0,0,23,10.831,45.193,45.193,0,0,0,6.677,30.656a45,45,0,0,0,4.154,42.728A45.193,45.193,0,0,0,30.656,89.71,44.773,44.773,0,0,0,48.193,93.25Z" transform="translate(179.304 68.156) rotate(-45)" fill="#3a3a3a"/>
      <path id="Path_673" data-name="Path 673" d="M1164.041,250.734h0a1.568,1.568,0,0,1,1.3.689l13.035,19.263a1.562,1.562,0,0,1,.234.546,17.742,17.742,0,0,1-14.616,27.819h0a17.765,17.765,0,0,1-14.852-27.5l0,0c.094-.142.192-.274.285-.4a1.564,1.564,0,0,1,.182-.361l13.135-19.363A1.568,1.568,0,0,1,1164.041,250.734Zm11.332,21.113L1164.039,255.1l-11.523,16.986a1.565,1.565,0,0,1-.252.516c-.077.1-.152.2-.224.293-.106.136-.206.265-.282.379a14.62,14.62,0,0,0,12.233,22.643h0a14.6,14.6,0,0,0,11.671-23.405A1.566,1.566,0,0,1,1175.373,271.846Z" transform="translate(-916.529 -206.411)" fill="#3a3a3a"/>
      <path id="Path_674" data-name="Path 674" d="M1158.392,751a37.875,37.875,0,1,0-37.874-37.874A37.874,37.874,0,0,0,1158.392,751" transform="translate(-900.243 -463.648)" fill="#4bc0c0"/>
      <path id="Path_675" data-name="Path 675" d="M1219.115,750.184a1.27,1.27,0,0,1-.9-.373l-8.62-8.62a1.274,1.274,0,0,1,0-1.8l7.881-7.88a7.069,7.069,0,0,1,10,0l.422.422a7.071,7.071,0,0,1,0,10l-7.88,7.88A1.27,1.27,0,0,1,1219.115,750.184Zm-6.818-9.894,6.818,6.818,6.979-6.979a4.524,4.524,0,0,0,0-6.4l-.422-.422a4.521,4.521,0,0,0-6.4,0Z" transform="translate(-954.672 -497.11)" fill="#3a3a3a"/>
      <path id="Path_676" data-name="Path 676" d="M1185.563,763.951h0a1.274,1.274,0,0,1,.9.373l8.62,8.621a1.274,1.274,0,0,1,0,1.8l-7.881,7.88a7.07,7.07,0,0,1-10,0l-.422-.422a7.079,7.079,0,0,1,0-10l7.881-7.88A1.274,1.274,0,0,1,1185.563,763.951Zm6.819,9.895-6.819-6.819-6.98,6.979a4.529,4.529,0,0,0,0,6.4l.422.422a4.523,4.523,0,0,0,6.4,0Z" transform="translate(-933.707 -518.077)" fill="#3a3a3a"/>
      <path id="Ellipse_115" data-name="Ellipse 115" d="M39.148,0A38.972,38.972,0,0,1,61.038,6.687,39.259,39.259,0,0,1,75.22,23.91a39.1,39.1,0,0,1-3.61,37.128A39.259,39.259,0,0,1,54.387,75.22a39.1,39.1,0,0,1-37.128-3.61A39.259,39.259,0,0,1,3.077,54.387a39.1,39.1,0,0,1,3.61-37.128A39.259,39.259,0,0,1,23.91,3.077,38.9,38.9,0,0,1,39.148,0Zm0,75.749A36.424,36.424,0,0,0,59.611,69.5a36.711,36.711,0,0,0,13.262-16.1A36.551,36.551,0,0,0,69.5,18.686a36.711,36.711,0,0,0-16.1-13.262A36.551,36.551,0,0,0,18.686,8.8,36.711,36.711,0,0,0,5.424,24.9,36.551,36.551,0,0,0,8.8,59.611,36.711,36.711,0,0,0,24.9,72.873,36.37,36.37,0,0,0,39.148,75.749Z" transform="translate(212.304 218.435) rotate(-10.901)" fill="#3a3a3a"/>
      <g id="Group_615" data-name="Group 615" transform="translate(31.056 224.633)">
        <path id="Path_677" data-name="Path 677" d="M714.785,747.468a36.514,36.514,0,1,1-36.513-36.393,36.454,36.454,0,0,1,36.513,36.393" transform="translate(-640.442 -710.047)" fill="#80c894"/>
        <path id="Path_678" data-name="Path 678" d="M689.462,781.607a32.667,32.667,0,0,0,10.36-12.195,32.439,32.439,0,0,0,12.194-10.346,36.7,36.7,0,0,1-22.554,22.541m-46.51-22.541a32.492,32.492,0,0,0,12.2,10.346,32.545,32.545,0,0,0,10.357,12.195,36.714,36.714,0,0,1-22.56-22.541m22.56-46.449A32.5,32.5,0,0,0,655.155,724.8a32.548,32.548,0,0,0-12.2,10.346,36.7,36.7,0,0,1,22.56-22.531m46.5,22.531A32.495,32.495,0,0,0,699.822,724.8a32.621,32.621,0,0,0-10.36-12.185,36.677,36.677,0,0,1,22.554,22.531m-7.833,21.068c4-1.226,7.238-2.773,9.28-4.592-1.52,5.984-6,11.253-12.339,15.029a47.192,47.192,0,0,0,3.059-10.437m-14.757,15.138a69.044,69.044,0,0,0,2.675-12.6,79.763,79.763,0,0,0,10.143-1.97,44.5,44.5,0,0,1-3.758,11.3,43.819,43.819,0,0,1-9.061,3.271m-.7,2.008a46.708,46.708,0,0,0,8.33-2.642c-3.517,5.876-8.312,10.149-13.772,11.954a25.942,25.942,0,0,0,5.441-9.312m-22.48,0a25.882,25.882,0,0,0,5.437,9.312c-5.455-1.8-10.255-6.078-13.763-11.954a46.754,46.754,0,0,0,8.326,2.642m-13.516-16.577a80.027,80.027,0,0,0,10.14,1.97,69.383,69.383,0,0,0,2.677,12.6,43.983,43.983,0,0,1-9.059-3.271,44.738,44.738,0,0,1-3.758-11.3m-1.941-.569a47.354,47.354,0,0,0,3.064,10.437c-6.344-3.775-10.817-9.044-12.343-15.029,2.048,1.819,5.28,3.366,9.279,4.592m0-18.229c-4,1.241-7.231,2.793-9.279,4.608,1.526-5.985,6-11.25,12.343-15.034a47.636,47.636,0,0,0-3.064,10.426m14.758-15.117a69.177,69.177,0,0,0-2.677,12.6,78.941,78.941,0,0,0-10.14,1.97,44.751,44.751,0,0,1,3.758-11.3,43.92,43.92,0,0,1,9.059-3.263m.7-2.017a46.979,46.979,0,0,0-8.326,2.645c3.508-5.878,8.308-10.157,13.763-11.953a25.943,25.943,0,0,0-5.437,9.307m22.48,0a26,26,0,0,0-5.441-9.307c5.459,1.8,10.255,6.075,13.772,11.953a46.931,46.931,0,0,0-8.33-2.645m13.519,16.585a78.686,78.686,0,0,0-10.143-1.97,68.84,68.84,0,0,0-2.675-12.6,43.757,43.757,0,0,1,9.061,3.263,44.517,44.517,0,0,1,3.758,11.3m1.939.55a48.145,48.145,0,0,0-3.059-10.426c6.339,3.784,10.82,9.049,12.339,15.034-2.042-1.815-5.277-3.367-9.28-4.608m.3,1.956c6.08,2.021,9.56,4.639,9.56,7.168s-3.48,5.144-9.56,7.168a52.771,52.771,0,0,0,0-14.337m-12.181-2.679a73.6,73.6,0,0,1,10.271,2.081,51.488,51.488,0,0,1,0,15.527,73,73,0,0,1-10.271,2.082c.313-3.135.489-6.431.489-9.844s-.177-6.717-.489-9.847m-13.914,20.621V736.331a114.759,114.759,0,0,1,12.038.7,92.38,92.38,0,0,1,0,20.148,112.828,112.828,0,0,1-12.038.7m0,14.861V759.691a111.559,111.559,0,0,0,11.824-.707,67.3,67.3,0,0,1-2.893,12.83,51.442,51.442,0,0,1-8.932.931m-1.812-13.055v13.055a51.531,51.531,0,0,1-8.935-.931,66.548,66.548,0,0,1-2.885-12.83,111.463,111.463,0,0,0,11.82.707m0-38.218v13.054a113.284,113.284,0,0,0-11.82.7,66.463,66.463,0,0,1,2.885-12.82,51.938,51.938,0,0,1,8.935-.934m0-10.784v8.978a52.127,52.127,0,0,0-8.2.772c2.207-5.543,5.08-9.157,8.2-9.75m1.812,8.978v-8.978c3.123.593,5.991,4.207,8.2,9.75a52.113,52.113,0,0,0-8.2-.772m0,1.806a51.847,51.847,0,0,1,8.932.934,67.213,67.213,0,0,1,2.893,12.82,113.382,113.382,0,0,0-11.824-.7Zm-14.4,25.638a92.054,92.054,0,0,1,.551-10.078,114.892,114.892,0,0,1,12.041-.7v21.553a112.958,112.958,0,0,1-12.041-.7,91.919,91.919,0,0,1-.551-10.069m-13.5,7.168c-6.082-2.024-9.552-4.639-9.552-7.168s3.47-5.147,9.552-7.168a52.434,52.434,0,0,0,0,14.337m1.322-7.168a51.383,51.383,0,0,1,.585-7.766,73.22,73.22,0,0,1,10.274-2.081,99.368,99.368,0,0,0,0,19.691,72.621,72.621,0,0,1-10.274-2.082,51.413,51.413,0,0,1-.585-7.761m25.675,36.512c-3.466,0-6.683-3.77-9.107-9.835a53.611,53.611,0,0,0,8.2.766v8.88h1.812v-8.88a53.6,53.6,0,0,0,8.2-.766c-2.424,6.065-5.636,9.835-9.108,9.835" transform="translate(-639.942 -709.813)" fill="#44b770"/>
        <path id="Path_679" data-name="Path 679" d="M711.416,837.281c-.071-.208-.444-.344-.864-.2s-.635.472-.564.679.444.342.865.2.633-.469.562-.677m-2.2.733c-.11-.323-.75-.511-1.49-.265s-1.135.778-1.024,1.1.75.513,1.492.266,1.132-.78,1.022-1.1m-3.506,1.168a10.98,10.98,0,0,0-5.418,1.8,10.907,10.907,0,0,0,5.418-1.8m-6.343,2.113c-.36-1.049,2.395-2.056,3.248-2.34a8.858,8.858,0,0,1,3.3-.561,2.288,2.288,0,0,1,1.55-1.416,2.473,2.473,0,0,1,1.875.058,1.729,1.729,0,0,1,.953-.73,1.446,1.446,0,0,1,1.9.717,1.417,1.417,0,0,1-1.072,1.71,1.761,1.761,0,0,1-1.206-.01,2.438,2.438,0,0,1-1.454,1.168,2.326,2.326,0,0,1-2.1-.2,8.792,8.792,0,0,1-2.966,1.526c-.853.284-3.662,1.131-4.022.079" transform="translate(-675.42 -786.066)" fill="#393939"/>
        <path id="Path_680" data-name="Path 680" d="M721.253,827.847a.413.413,0,0,1-.019-.177l.323-2.807a.4.4,0,0,1,.445-.355l2.778.284,3.789-4.118a.41.41,0,0,1,.578-.021.4.4,0,0,1,.026.573l-3.928,4.266a.4.4,0,0,1-.341.128l-2.581-.261-.278,2.407a.405.405,0,0,1-.452.356.413.413,0,0,1-.34-.276" transform="translate(-688.723 -776.552)" fill="#393939"/>
        <path id="Path_681" data-name="Path 681" d="M707.131,828.1c-1.127-1.722-3.572-5.275-4.522-5.84-.479-.286-1.092-.594-1.274-.431-.093.116-.348.833.186,2.114a7.54,7.54,0,0,0,1.831,2.767c.3.263,1.927,1.207,3.009,1.813Zm-6.512-4.238c-.532-1.553-.079-2.421.161-2.634.407-.365.943-.443,2.247.334,1.374.819,4.658,5.892,5.031,6.469a.421.421,0,0,1,.051.32.406.406,0,0,1-.2.255l-1.351.736a.408.408,0,0,1-.4,0c-.289-.16-2.856-1.59-3.348-2.021a8.341,8.341,0,0,1-2.046-3.067c-.058-.136-.107-.264-.15-.391" transform="translate(-676.05 -776.807)" fill="#393939"/>
        <path id="Path_682" data-name="Path 682" d="M682.357,829.293a.406.406,0,0,1,.575-.488l5.494,2.852,1.545-.648a.411.411,0,0,1,.538.217.4.4,0,0,1-.215.531l-1.723.724a.416.416,0,0,1-.349-.013l-5.667-2.941a.419.419,0,0,1-.2-.234m-2.011,5.864a.388.388,0,0,1-.021-.124.4.4,0,0,1,.4-.412l7.143-.1,2.894-2.592a.41.41,0,0,1,.577.032.4.4,0,0,1-.029.574l-3.005,2.692a.408.408,0,0,1-.266.105l-7.3.106a.415.415,0,0,1-.4-.278" transform="translate(-663.872 -781.543)" fill="#393939"/>
        <path id="Path_683" data-name="Path 683" d="M725.607,833.253a.4.4,0,0,1,.16-.467l4.173-2.748a.41.41,0,0,1,.568.116.4.4,0,0,1-.114.562l-4.175,2.75a.412.412,0,0,1-.567-.117.389.389,0,0,1-.046-.095m-2.66,2.259a.407.407,0,0,1,.1-.423.411.411,0,0,1,.579.012l1.7,1.75,1.89-1.754a.415.415,0,0,1,.349-.1l5.747,1.046a.406.406,0,1,1-.14.8l-5.545-1.008-2.035,1.885a.409.409,0,0,1-.573-.015l-1.982-2.037a.388.388,0,0,1-.093-.152" transform="translate(-689.752 -782.278)" fill="#393939"/>
        <path id="Path_684" data-name="Path 684" d="M714.446,845.068a34.431,34.431,0,0,0-1.279,3.24,7.459,7.459,0,0,0,.244,3.293c.365,1.342,1.009,1.757,1.162,1.8.236.018.535-.594.741-1.105.407-1.02.166-5.307,0-7.352Zm-1.7,7.138c-.043-.126-.084-.258-.12-.4a8.214,8.214,0,0,1-.258-3.661c.126-.64,1.288-3.31,1.419-3.612a.4.4,0,0,1,.313-.239l1.527-.222a.41.41,0,0,1,.316.087.416.416,0,0,1,.156.283c.057.678.565,6.678-.025,8.152-.559,1.4-1.033,1.656-1.573,1.609-.33-.028-1.224-.445-1.756-2" transform="translate(-683.276 -790.844)" fill="#393939"/>
        <path id="Path_685" data-name="Path 685" d="M703.814,838.357a.416.416,0,0,1-.022-.1.4.4,0,0,1,.38-.43l5.01-.31a.414.414,0,0,1,.437.382.406.406,0,0,1-.381.431l-5.009.309a.411.411,0,0,1-.415-.278m-11.831,12.951A.417.417,0,0,1,692,851l2.7-5.727a.409.409,0,0,1,.267-.222l1.816-.453a.412.412,0,0,1,.5.3.4.4,0,0,1-.295.494l-1.627.408-2.616,5.553a.41.41,0,0,1-.758-.046m-5.2-3.459a.4.4,0,0,1,.144-.457l5.868-4.279a.416.416,0,0,1,.276-.077l4.044.343a.412.412,0,0,1,.377.44.4.4,0,0,1-.439.37l-3.894-.328-5.744,4.19a.41.41,0,0,1-.572-.091.391.391,0,0,1-.06-.111" transform="translate(-667.781 -786.859)" fill="#393939"/>
        <path id="Path_686" data-name="Path 686" d="M737.918,832.91l-.075.063c-.051.04-.124.1-.217.166s-.212.155-.342.246l-.214.144a.267.267,0,0,1-.127.046c-.045.011-.089.028-.135.042l-2.669.889-2.668.889a1.35,1.35,0,0,1-.206-.6l2.668-.888,2.669-.889a1.046,1.046,0,0,0,.132-.049.344.344,0,0,1,.13-.037c.09,0,.176-.007.258-.013.161-.006.3-.013.423-.013s.21,0,.274,0l.1,0" transform="translate(-694.815 -784.061)" fill="#393939"/>
        <path id="Path_687" data-name="Path 687" d="M677.524,709.788a37.842,37.842,0,0,1,31.331,16.493,37.309,37.309,0,0,1,3.486,6.358,37.2,37.2,0,0,1,0,29.141,37.315,37.315,0,0,1-3.486,6.358,37.953,37.953,0,0,1-62.661,0,37.315,37.315,0,0,1-3.486-6.358,37.2,37.2,0,0,1,0-29.141,37.308,37.308,0,0,1,3.486-6.358,37.854,37.854,0,0,1,31.331-16.493Zm0,72.376A35.392,35.392,0,0,0,702.5,771.921a34.822,34.822,0,0,0,7.568-11.111,34.737,34.737,0,0,0,0-27.2A34.822,34.822,0,0,0,702.5,722.5a35.532,35.532,0,0,0-49.961,0,34.823,34.823,0,0,0-7.567,11.111,34.737,34.737,0,0,0,0,27.2,34.823,34.823,0,0,0,7.567,11.111,35.392,35.392,0,0,0,24.98,10.242Z" transform="translate(-639.736 -709.788)" fill="#3a3a3a"/>
        <path id="Path_688" data-name="Path 688" d="M736.644,760.418c.082.2.461.319.874.157s.608-.505.526-.709-.461-.317-.874-.153-.608.5-.525.705m2.158-.851c.128.316.777.469,1.5.183s1.09-.839.962-1.156-.777-.472-1.5-.184-1.089.84-.96,1.157m3.438-1.357a10.979,10.979,0,0,0,5.312-2.1,10.925,10.925,0,0,0-5.312,2.1m6.219-2.455c.417,1.029-2.279,2.183-3.116,2.514a8.871,8.871,0,0,1-3.261.739,2.289,2.289,0,0,1-1.471,1.5,2.48,2.48,0,0,1-1.875.045,1.74,1.74,0,0,1-.912.78,1.448,1.448,0,0,1-1.94-.613,1.417,1.417,0,0,1,.978-1.765,1.765,1.765,0,0,1,1.206-.056,2.431,2.431,0,0,1,1.389-1.245,2.324,2.324,0,0,1,2.112.084,8.8,8.8,0,0,1,2.878-1.685c.836-.33,3.6-1.328,4.012-.3" transform="translate(-697.576 -736.915)" fill="#393939"/>
        <path id="Path_689" data-name="Path 689" d="M734.927,767.258a.43.43,0,0,1,.03.176l-.172,2.819a.4.4,0,0,1-.426.379l-2.788-.132-3.56,4.317a.409.409,0,0,1-.575.054.4.4,0,0,1-.058-.572l3.69-4.473a.4.4,0,0,1,.333-.147l2.591.121.146-2.419a.406.406,0,0,1,.432-.38.416.416,0,0,1,.355.257" transform="translate(-692.402 -744.023)" fill="#393939"/>
        <path id="Path_690" data-name="Path 690" d="M748.9,765.39c1.219,1.658,3.854,5.073,4.832,5.586.495.26,1.123.534,1.3.361.087-.12.3-.85-.3-2.1a7.532,7.532,0,0,0-1.979-2.662c-.316-.246-1.991-1.1-3.1-1.646Zm6.733,3.877c.615,1.522.212,2.414-.018,2.639-.387.388-.918.494-2.261-.211-1.417-.742-4.972-5.63-5.376-6.185a.421.421,0,0,1-.068-.317.4.4,0,0,1,.185-.265l1.309-.808a.408.408,0,0,1,.395-.02c.3.144,2.937,1.432,3.453,1.835a8.361,8.361,0,0,1,2.209,2.951c.066.133.121.258.171.381" transform="translate(-704.926 -742.235)" fill="#393939"/>
        <path id="Path_691" data-name="Path 691" d="M768.682,765.1a.4.4,0,0,1-.006.317.408.408,0,0,1-.541.2l-5.641-2.55-1.508.732a.409.409,0,0,1-.549-.187.4.4,0,0,1,.186-.542l1.681-.816a.407.407,0,0,1,.348-.006l5.819,2.628a.416.416,0,0,1,.212.223m1.689-5.964a.406.406,0,0,1-.349.556l-7.127.492-2.749,2.746a.41.41,0,0,1-.577,0,.4.4,0,0,1,0-.575l2.854-2.851a.412.412,0,0,1,.26-.119l7.28-.5a.415.415,0,0,1,.41.257" transform="translate(-711.941 -739.086)" fill="#393939"/>
        <path id="Path_692" data-name="Path 692" d="M725.635,761.839a.405.405,0,0,1-.135.475l-4.018,2.972a.41.41,0,0,1-.573-.086.4.4,0,0,1,.083-.566l4.019-2.973a.412.412,0,0,1,.624.178m2.533-2.4a.4.4,0,0,1-.077.429.411.411,0,0,1-.578.019l-1.794-1.655-1.792,1.855a.412.412,0,0,1-.343.122l-5.8-.731a.407.407,0,1,1,.1-.808l5.592.7,1.928-1.993a.409.409,0,0,1,.573-.014l2.09,1.924a.4.4,0,0,1,.1.148" transform="translate(-686.412 -738.103)" fill="#393939"/>
        <path id="Path_693" data-name="Path 693" d="M746.411,745.9a34.65,34.65,0,0,0,1.1-3.305,7.459,7.459,0,0,0-.423-3.276c-.437-1.319-1.1-1.7-1.258-1.73-.236-.005-.5.621-.679,1.144-.35,1.041.124,5.309.4,7.341Zm1.311-7.22q.075.185.142.392a8.228,8.228,0,0,1,.457,3.641,38.623,38.623,0,0,1-1.221,3.684.4.4,0,0,1-.3.256l-1.513.3a.411.411,0,0,1-.321-.069.416.416,0,0,1-.171-.275c-.093-.674-.927-6.637-.418-8.141.481-1.427.94-1.709,1.483-1.692.33.009,1.247.379,1.862,1.9" transform="translate(-702.686 -725.661)" fill="#393939"/>
        <path id="Path_694" data-name="Path 694" d="M728.875,746.215a.421.421,0,0,1,.027.1.4.4,0,0,1-.355.45l-4.986.583a.413.413,0,0,1-.457-.358.405.405,0,0,1,.358-.451l4.984-.582a.412.412,0,0,1,.429.255m11.108-13.576a.41.41,0,0,1,0,.3l-2.384,5.866a.41.41,0,0,1-.255.236l-1.789.551a.413.413,0,0,1-.513-.268.4.4,0,0,1,.268-.509l1.6-.5,2.31-5.687a.41.41,0,0,1,.759,0m5.384,3.171a.4.4,0,0,1-.119.464l-5.626,4.592a.415.415,0,0,1-.271.092l-4.057-.122a.411.411,0,0,1-.4-.419.4.4,0,0,1,.418-.394l3.906.117,5.508-4.5a.409.409,0,0,1,.576.06.382.382,0,0,1,.066.107" transform="translate(-689.859 -722.991)" fill="#393939"/>
        <path id="Path_695" data-name="Path 695" d="M720.189,770.958l.072-.066c.048-.043.117-.106.207-.178s.2-.166.329-.265l.206-.155a.276.276,0,0,1,.124-.053c.045-.013.087-.033.133-.049l2.617-1.032,2.616-1.033a1.363,1.363,0,0,1,.238.589l-2.616,1.033-2.616,1.033a.968.968,0,0,0-.13.056.352.352,0,0,1-.128.044c-.089.008-.176.017-.257.027-.16.014-.3.028-.422.035s-.21.009-.275.012h-.1" transform="translate(-688.089 -744.707)" fill="#393939"/>
        <path id="Path_696" data-name="Path 696" d="M641.016,795.32a4.392,4.392,0,0,1-.1-4.061,13.064,13.064,0,0,1,3.985-4.625,42.212,42.212,0,0,1,6.479-4.13A66.433,66.433,0,0,1,665,777.079l.357,1.436a64.836,64.836,0,0,0-13.285,5.3c-5.287,2.805-8.768,5.66-9.8,8.037a2.947,2.947,0,0,0,.033,2.752Z" transform="translate(-639.974 -750.45)" fill="#393939"/>
        <path id="Path_697" data-name="Path 697" d="M765.271,802l-.37-1.433a50.8,50.8,0,0,0,6.2-2.136,71.428,71.428,0,0,0,7.194-3.427c5.359-2.947,8.878-5.91,9.91-8.342a2.942,2.942,0,0,0-.046-2.744l1.288-.73a4.386,4.386,0,0,1,.121,4.052A13.435,13.435,0,0,1,785.554,792,43.545,43.545,0,0,1,779,796.3,65.994,65.994,0,0,1,765.271,802Z" transform="translate(-715.332 -754.013)" fill="#393939"/>
        <path id="Path_698" data-name="Path 698" d="M666.793,790.734l-3.449-.588,1.623-3.1.729.381-1.1,2.1,2.334.4Z" transform="translate(-653.821 -756.28)" fill="#393939"/>
      </g>
    </g>
  </g>
</svg>
